<svg xmlns="http://www.w3.org/2000/svg" width="23.163" height="23.163" viewBox="0 0 23.163 23.163">
  <g id="Component_5_1" data-name="Component 5 – 1" transform="translate(1 1)">
    <path id="Path_88" data-name="Path 88" d="M2.5,23.334,8.576,21a6.836,6.836,0,0,0,.765-.322,3.291,3.291,0,0,0,.46-.3,6.83,6.83,0,0,0,.6-.568l12.35-12.35a3.1,3.1,0,0,0-4.38-4.38L6.026,15.429a6.828,6.828,0,0,0-.568.6,3.281,3.281,0,0,0-.3.46,6.828,6.828,0,0,0-.322.765Zm0,0,2.253-5.859c.161-.419.242-.629.38-.725a.548.548,0,0,1,.415-.088c.165.032.324.19.642.508l2.473,2.474c.318.318.476.476.508.642a.548.548,0,0,1-.088.415c-.1.138-.306.219-.725.38Z" transform="translate(-2.5 -2.171)" fill="none" stroke="#bcbdd0" stroke-linecap="round" stroke-linejoin="round" stroke-width="2"/>
  </g>
</svg>
